name GIL02_slow1.mot
datacolumns 153
datarows 4
range 0.77499998 0.79999995
endheader

                time	           pelvis_tx	           pelvis_ty	           pelvis_tz	         pelvis_tilt	         pelvis_list	     pelvis_rotation	       hip_flexion_r	     hip_adduction_r	      hip_rotation_r	        knee_angle_r	       ankle_angle_r	    subtalar_angle_r	         mtp_angle_r	       hip_flexion_l	     hip_adduction_l	      hip_rotation_l	        knee_angle_l	       ankle_angle_l	    subtalar_angle_l	         mtp_angle_l	    lumbar_extension	      lumbar_bending	     lumbar_rotation	     ground_force_vx	     ground_force_vy	     ground_force_vz	     ground_force_px	     ground_force_py	     ground_force_pz	     ground_force_vx	     ground_force_vy	     ground_force_vz	     ground_force_px	     ground_force_py	     ground_force_pz	     ground_torque_x	     ground_torque_y	     ground_torque_z	     ground_torque_x	     ground_torque_y	     ground_torque_z	    ground_marker_px	    ground_marker_py	    ground_marker_pz	    ground_marker_px	    ground_marker_py	    ground_marker_pz	    ground_marker_px	    ground_marker_py	    ground_marker_pz	    ground_marker_px	    ground_marker_py	    ground_marker_pz	    ground_marker_px	    ground_marker_py	    ground_marker_pz	    ground_marker_px	    ground_marker_py	    ground_marker_pz	    ground_marker_px	    ground_marker_py	    ground_marker_pz	    ground_marker_px	    ground_marker_py	    ground_marker_pz	    ground_marker_px	    ground_marker_py	    ground_marker_pz	    ground_marker_px	    ground_marker_py	    ground_marker_pz	    ground_marker_px	    ground_marker_py	    ground_marker_pz	    ground_marker_px	    ground_marker_py	    ground_marker_pz	    ground_marker_px	    ground_marker_py	    ground_marker_pz	    ground_marker_px	    ground_marker_py	    ground_marker_pz	    ground_marker_px	    ground_marker_py	    ground_marker_pz	    ground_marker_px	    ground_marker_py	    ground_marker_pz	    ground_marker_px	    ground_marker_py	    ground_marker_pz	    ground_marker_px	    ground_marker_py	    ground_marker_pz	    ground_marker_px	    ground_marker_py	    ground_marker_pz	    ground_marker_px	    ground_marker_py	    ground_marker_pz	    ground_marker_px	    ground_marker_py	    ground_marker_pz	    ground_marker_px	    ground_marker_py	    ground_marker_pz	    ground_marker_px	    ground_marker_py	    ground_marker_pz	    ground_marker_px	    ground_marker_py	    ground_marker_pz	    ground_marker_px	    ground_marker_py	    ground_marker_pz	    ground_marker_px	    ground_marker_py	    ground_marker_pz	    ground_marker_px	    ground_marker_py	    ground_marker_pz	    ground_marker_px	    ground_marker_py	    ground_marker_pz	    ground_marker_px	    ground_marker_py	    ground_marker_pz	    ground_marker_px	    ground_marker_py	    ground_marker_pz	    ground_marker_px	    ground_marker_py	    ground_marker_pz	    ground_marker_px	    ground_marker_py	    ground_marker_pz	    ground_marker_px	    ground_marker_py	    ground_marker_pz	    ground_marker_px	    ground_marker_py	    ground_marker_pz	    ground_marker_px	    ground_marker_py	    ground_marker_pz	    ground_marker_px	    ground_marker_py	    ground_marker_pz	    ground_marker_px	    ground_marker_py	    ground_marker_pz	
          0.77499998	          1.17885327	          0.94562936	         -0.19447377	          0.49299431	          7.01443958	         -2.74604535	        -13.03828144	         -7.62201452	          9.97138405	        -18.53973198	         10.04353714	          0.00000000	          0.00000000	         14.25421333	          7.76218987	          4.34828949	         -3.20142817	         -9.88956642	          0.00000000	          0.00000000	        -13.08674526	         -5.26368761	          1.96807861	         66.65653613	        369.73040203	         -4.90421085	          0.88284924	          0.00000000	         -0.13059486	        -24.77787224	        300.01993448	          3.27057789	          1.28360010	          0.00000000	         -0.23446541	          0.00000000	          0.69200171	          0.00000000	          0.00000000	          1.07267700	          0.00000000	          1.09748006	          0.88235378	         -0.19967936	          1.08814621	          0.85084343	         -0.13564090	          1.09886873	          0.86738616	         -0.28477290	          0.99776673	          0.45619938	         -0.13174649	          1.20099711	          0.46001810	         -0.26534075	          0.78147745	          0.10984504	         -0.15189819	          1.27380800	          0.07123447	         -0.23873013	          1.17885327	          0.94562936	         -0.19447377	          1.17025030	          0.93235677	         -0.07482196	          1.18745613	          0.95890200	         -0.31412560	          0.98788708	          0.98406160	         -0.17080304	          0.99939334	          0.98748296	         -0.25696662	          1.00520921	          0.45506743	         -0.07373290	          1.21131325	          0.45988181	         -0.32241580	          0.99428666	          0.45376527	         -0.18326475	          1.17667305	          0.44013709	         -0.21717750	          0.76598668	          0.11741865	         -0.11580558	          1.25794327	          0.06585279	         -0.27394873	          0.79649609	          0.12106744	         -0.17916772	          1.27714586	          0.08704071	         -0.21376312	          0.99763083	          1.41428781	         -0.18396729	          1.12013221	          1.33058977	         -0.13680513	          1.12205088	          1.33352828	         -0.24194983	          1.10440993	          1.34106600	         -0.18658890	          1.17470419	          1.17237759	         -0.20169786	          1.07221282	          0.54423779	          0.00369376	          1.32249260	          0.56906867	         -0.25777704	          1.09630740	          0.60864592	         -0.05919193	          1.25028527	          0.60780978	         -0.30652827	          1.08175337	          0.52378625	         -0.08409157	          1.24508846	          0.51972044	         -0.30307987	          0.84237456	          0.22452627	         -0.02079652	          1.25912166	          0.20301774	         -0.36701348	          0.82243997	          0.20058405	         -0.09685126	          1.24866378	          0.16722381	         -0.29537615	          0.87827885	          0.04043553	         -0.13503732	          1.39659655	          0.04180351	         -0.26191995	
          0.78333330	          1.18663526	          0.94685304	         -0.19567803	          0.46246243	          7.19604111	         -2.69309235	        -12.63817120	         -8.02799606	          9.43409348	        -19.94262695	          8.67486858	          0.00000000	          0.00000000	         13.77591324	          8.08539200	          5.22707891	         -3.20719910	         -9.35480976	          0.00000000	          0.00000000	        -12.83624363	         -5.48131847	          1.60530329	         60.31692783	        329.06129619	         -2.25747943	          0.88346753	          0.00000000	         -0.13065930	        -25.16561829	        314.51184039	          4.43102348	          1.28507397	          0.00000000	         -0.23485660	          0.00000000	          0.64813776	          0.00000000	          0.00000000	          1.32750537	          0.00000000	          1.10516918	          0.88365757	         -0.20140913	          1.09590423	          0.85191202	         -0.13713306	          1.10659409	          0.86894071	         -0.28621268	          1.00786793	          0.45627302	         -0.13151468	          1.20497048	          0.46060017	         -0.26612240	          0.78556293	          0.11380612	         -0.15049730	          1.27387202	          0.07121305	         -0.23854148	          1.18663526	          0.94685304	         -0.19567803	          1.17806375	          0.93319911	         -0.07614268	          1.19520664	          0.96050704	         -0.31521335	          0.99564976	          0.98522699	         -0.17173846	          1.00708663	          0.98908097	         -0.25813141	          1.01484585	          0.45554507	         -0.07343689	          1.21614301	          0.46049169	         -0.32303604	          1.00550795	          0.45263493	         -0.18301338	          1.17981505	          0.44108707	         -0.21808498	          0.76976329	          0.12207748	         -0.11469287	          1.25835085	          0.06595982	         -0.27393210	          0.80095941	          0.12500305	         -0.17778397	          1.27725327	          0.08698361	         -0.21367630	          1.00396407	          1.41556573	         -0.18500666	          1.12704289	          1.33186281	         -0.13811903	          1.12954152	          1.33459318	         -0.24335341	          1.11158967	          1.34236896	         -0.18788791	          1.18233907	          1.17364585	         -0.20242983	          1.08057046	          0.54495502	          0.00413498	          1.32764804	          0.56873506	         -0.25646189	          1.10533178	          0.60914856	         -0.05884154	          1.25643110	          0.60786349	         -0.30555972	          1.09133232	          0.52359641	         -0.08332185	          1.25017130	          0.52085423	         -0.30276263	          0.84703833	          0.22903667	         -0.02001576	          1.26184905	          0.20305949	         -0.36719713	          0.82762790	          0.20468980	         -0.09572965	          1.25027883	          0.16711192	         -0.29521918	          0.87942940	          0.04050956	         -0.13481352	          1.39702630	          0.04152851	         -0.26156068	
          0.79166663	          1.19438493	          0.94803858	         -0.19689411	          0.41234684	          7.31920528	         -2.64134455	        -12.13275242	         -8.37856674	          8.83321953	        -21.45548248	          7.12994385	          0.00000000	          0.00000000	         13.30332565	          8.32824802	          5.92948961	         -3.19365644	         -8.80667686	          0.00000000	          0.00000000	        -12.52084351	         -5.68098259	          1.40954256	         53.29321304	        287.43562899	          0.00670262	          0.88408002	          0.00000000	         -0.13078937	        -27.40450297	        331.09080573	          5.62272284	          1.28665259	          0.00000000	         -0.23530196	          0.00000000	          0.61881305	          0.00000000	          0.00000000	          1.59902588	          0.00000000	          1.11277246	          0.88485658	         -0.20315534	          1.10360765	          0.85303307	         -0.13852565	          1.11424410	          0.87039429	         -0.28757074	          1.01852679	          0.45629030	         -0.13112724	          1.20882750	          0.46110213	         -0.26701203	          0.79018754	          0.11786523	         -0.14900869	          1.27389717	          0.07118475	         -0.23839504	          1.19438493	          0.94803858	         -0.19689411	          1.18586266	          0.93412822	         -0.07747445	          1.20290720	          0.96194899	         -0.31631377	          1.00340390	          0.98641741	         -0.17277326	          1.01479578	          0.99067181	         -0.25936285	          1.02495635	          0.45599580	         -0.07298238	          1.22065377	          0.46098298	         -0.32379338	          1.01868498	          0.44990706	         -0.18232602	          1.18323922	          0.44217229	         -0.21847625	          0.77408773	          0.12685242	         -0.11351185	          1.25863576	          0.06603114	         -0.27391300	          0.80628663	          0.12850101	         -0.17629209	          1.27742505	          0.08698118	         -0.21357931	          1.01117897	          1.41613030	         -0.18648694	          1.13388860	          1.33348191	         -0.13948719	          1.13666654	          1.33598781	         -0.24462502	          1.11877453	          1.34366024	         -0.18917273	          1.19005167	          1.17536461	         -0.20324390	          1.08912420	          0.54572922	          0.00473298	          1.33272612	          0.56820047	         -0.25572038	          1.11402106	          0.60939121	         -0.05837956	          1.26252520	          0.60793555	         -0.30507654	          1.10166430	          0.52331376	         -0.08201722	          1.25519836	          0.52142233	         -0.30250573	          0.85226762	          0.23367378	         -0.01918773	          1.26421785	          0.20297652	         -0.36744937	          0.83305317	          0.20927872	         -0.09442717	          1.25201297	          0.16675343	         -0.29525217	          0.88072491	          0.04056045	         -0.13466701	          1.39741814	          0.04130432	         -0.26127139	
          0.79999995	          1.20208693	          0.94916332	         -0.19810387	          0.34469604	          7.38984632	         -2.60043192	        -11.52342224	         -8.67949581	          8.19277573	        -23.06513786	          5.37318468	          0.00000000	          0.00000000	         12.84198380	          8.49531269	          6.41998625	         -3.16763926	         -8.25570583	          0.00000000	          0.00000000	        -12.28340054	         -5.72618914	          1.23403060	         45.80092350	        245.14023778	          1.59297457	          0.88467822	          0.00000000	         -0.13097008	        -30.98202920	        350.78470559	          7.33033989	          1.28818457	          0.00000000	         -0.23578467	          0.00000000	          0.59768665	          0.00000000	          0.00000000	          1.83468079	          0.00000000	          1.12032795	          0.88600802	         -0.20495188	          1.11123216	          0.85417795	         -0.13982326	          1.12182128	          0.87172890	         -0.28884953	          1.02971363	          0.45623708	         -0.13058907	          1.21260273	          0.46153694	         -0.26798269	          0.79539752	          0.12198167	         -0.14742619	          1.27392566	          0.07114540	         -0.23827924	          1.20208693	          0.94916332	         -0.19810387	          1.19360971	          0.93511271	         -0.07879905	          1.21056426	          0.96321398	         -0.31740871	          1.01114142	          0.98761219	         -0.17389800	          1.02252471	          0.99221617	         -0.26062939	          1.03552377	          0.45639762	         -0.07237855	          1.22485971	          0.46136576	         -0.32467255	          1.03160763	          0.44835427	         -0.18183576	          1.18663740	          0.44321686	         -0.21900024	          0.77901262	          0.13169590	         -0.11225279	          1.25884140	          0.06606695	         -0.27388367	          0.81180996	          0.13188963	         -0.17466925	          1.27784657	          0.08688967	         -0.21351580	          1.01876211	          1.41665852	         -0.18804890	          1.14080405	          1.33500338	         -0.14047956	          1.14387715	          1.33748233	         -0.24563615	          1.12596786	          1.34490728	         -0.19044071	          1.19772160	          1.17706740	         -0.20402890	          1.09788394	          0.54653686	          0.00546907	          1.33768880	          0.56751621	         -0.25560132	          1.12345695	          0.60983205	         -0.05801350	          1.26849544	          0.60816109	         -0.30511504	          1.11221266	          0.52361619	         -0.08084950	          1.25997746	          0.52140951	         -0.30264735	          0.85811096	          0.23838907	         -0.01830033	          1.26627338	          0.20278718	         -0.36774749	          0.83897364	          0.21373850	         -0.09327462	          1.25373650	          0.16649115	         -0.29573548	          0.88215923	          0.04057803	         -0.13459420	          1.39776492	          0.04111334	         -0.26104936	
